# xmcd CD database file
#
# Track frame offsets:
#	150
#	20155
#	43648
#	90753
#	126363
#	151020
#	177185
#	202005
#
# Disc length: 2974 seconds
#
# Revision: 0
# Processed by: cddbd v1.5.1PL0 Copyright (c) Steve Scherf et al.
# Submitted via: CDex 1.51
#
DISCID=5e0b9c08
DTITLE=Charles Mingus - East Coasting
DYEAR=1900
DGENRE=Jazz
TTITLE0=Memories of You (Take 7)
TTITLE1=East Coasting (Take 4)
TTITLE2=West Coast Ghost (Take 6)
TTITLE3=Celia (Take 5)
TTITLE4=Conversation (Take 16)
TTITLE5=Fifty-First Street Blues (Take 4)
TTITLE6=East Coasting (Alternate Take 3)
TTITLE7=Memories of You (Alternate Take 3)
EXTD=
EXTT0=
EXTT1=
EXTT2=
EXTT3=
EXTT4=
EXTT5=
EXTT6=
EXTT7=
PLAYORDER=
